<svg width="36" height="36" viewBox="0 0 36 36" fill="none" xmlns="http://www.w3.org/2000/svg">
<path d="M6 12C6 7.75736 6 5.63604 7.31802 4.31802C8.63604 3 10.7574 3 15 3H21C25.2426 3 27.364 3 28.682 4.31802C30 5.63604 30 7.75736 30 12V24C30 28.2426 30 30.364 28.682 31.682C27.364 33 25.2426 33 21 33H15C10.7574 33 8.63604 33 7.31802 31.682C6 30.364 6 28.2426 6 24V12Z" stroke="#A6A6A6" stroke-width="1.5"/>
<path opacity="0.5" d="M29.8467 24H11.8467C10.4517 24 9.75423 24 9.18198 24.1533C7.62907 24.5694 6.4161 25.7824 6 27.3353" stroke="#A6A6A6" stroke-width="1.5"/>
<path opacity="0.5" d="M12 10.5H24" stroke="#A6A6A6" stroke-width="1.5" stroke-linecap="round"/>
<path opacity="0.5" d="M12 15.75H19.5" stroke="#A6A6A6" stroke-width="1.5" stroke-linecap="round"/>
</svg>
