<svg width="24" height="24" viewBox="0 0 24 24" fill="none" xmlns="http://www.w3.org/2000/svg">
<path d="M6.48657 11.0268C6.48657 8.27524 6.48657 6.89848 7.34182 6.04421C8.19609 5.18897 9.57284 5.18896 12.3244 5.18896H15.2433C17.9949 5.18896 19.3717 5.18897 20.2259 6.04421C21.0812 6.89848 21.0812 8.27524 21.0812 11.0268V15.8917C21.0812 18.6432 21.0812 20.02 20.2259 20.8743C19.3717 21.7295 17.9949 21.7295 15.2433 21.7295H12.3244C9.57284 21.7295 8.19609 21.7295 7.34182 20.8743C6.48657 20.02 6.48657 18.6432 6.48657 15.8917V11.0268Z" stroke="#9DFF12" stroke-width="1.5"/>
<path opacity="0.5" d="M6.48655 18.8106C5.7124 18.8106 4.96996 18.503 4.42256 17.9556C3.87516 17.4082 3.56763 16.6658 3.56763 15.8916V10.0538C3.56763 6.38472 3.56763 4.5497 4.70795 3.41034C5.8473 2.27002 7.68233 2.27002 11.3514 2.27002H15.2433C16.0174 2.27002 16.7599 2.57755 17.3073 3.12495C17.8547 3.67235 18.1622 4.41479 18.1622 5.18894" stroke="#9DFF12" stroke-width="1.5"/>
</svg>
