<svg width="24" height="24" viewBox="0 0 24 24" fill="none" xmlns="http://www.w3.org/2000/svg">
<path opacity="0.5" d="M12 8V12L14.5 14.5" stroke="#9DFF12" stroke-width="1.5" stroke-linecap="round" stroke-linejoin="round"/>
<path d="M4.3381 6.87113L3.5881 6.87413C3.58889 7.07183 3.66771 7.26123 3.80741 7.40112C3.94711 7.54101 4.1364 7.62008 4.3341 7.62113L4.3381 6.87113ZM6.8801 7.63313C6.97859 7.63359 7.07621 7.61465 7.16738 7.57738C7.25855 7.54012 7.34149 7.48526 7.41145 7.41594C7.48142 7.34662 7.53705 7.2642 7.57517 7.17338C7.61329 7.08256 7.63314 6.98512 7.6336 6.88663C7.63406 6.78814 7.61511 6.69052 7.57785 6.59935C7.54058 6.50818 7.48572 6.42525 7.4164 6.35528C7.34709 6.28531 7.26466 6.22968 7.17385 6.19156C7.08303 6.15345 6.98559 6.13359 6.8871 6.13313L6.8801 7.63313ZM5.0751 4.32113C5.07457 4.22264 5.05465 4.12522 5.01648 4.03442C4.9783 3.94363 4.92262 3.86125 4.8526 3.79197C4.78259 3.7227 4.69961 3.6679 4.60842 3.63069C4.51722 3.59349 4.41959 3.57461 4.3211 3.57513C4.22261 3.57566 4.12518 3.59558 4.03439 3.63375C3.9436 3.67193 3.86121 3.72762 3.79194 3.79763C3.72267 3.86765 3.66786 3.95062 3.63066 4.04182C3.59345 4.13301 3.57457 4.23064 3.5751 4.32913L5.0751 4.32113ZM3.8271 10.7851C3.84147 10.6871 3.83628 10.5872 3.81182 10.4912C3.78737 10.3952 3.74414 10.305 3.68463 10.2258C3.62512 10.1466 3.5505 10.08 3.4651 10.0298C3.37969 9.97957 3.28518 9.94678 3.18704 9.93331C3.08889 9.91984 2.98904 9.92594 2.89327 9.95127C2.79749 9.9766 2.70769 10.0207 2.62903 10.0809C2.55038 10.1411 2.48444 10.2163 2.43502 10.3022C2.3856 10.3881 2.35368 10.4829 2.3411 10.5811L3.8271 10.7851ZM18.8621 5.13813C15.0421 1.31813 8.8691 1.27813 5.0741 5.07413L6.1341 6.13413C9.3341 2.93513 14.5571 2.95413 17.8021 6.19813L18.8621 5.13813ZM5.1381 18.8621C8.9581 22.6821 15.1311 22.7221 18.9261 18.9261L17.8661 17.8661C14.6661 21.0651 9.4431 21.0461 6.1981 17.8021L5.1381 18.8621ZM18.9261 18.9261C22.7211 15.1311 22.6821 8.95813 18.8621 5.13813L17.8021 6.19813C21.0461 9.44313 21.0651 14.6661 17.8661 17.8661L18.9261 18.9261ZM5.0741 5.07413L3.8071 6.34013L4.8681 7.40013L6.1341 6.13413L5.0741 5.07413ZM4.3341 7.62113L6.8801 7.63313L6.8871 6.13313L4.3421 6.12113L4.3341 7.62113ZM5.0881 6.86713L5.0751 4.32113L3.5751 4.32913L3.5881 6.87413L5.0881 6.86713ZM2.3401 10.5801C2.13477 12.0828 2.28056 13.6126 2.76604 15.0494C3.25151 16.4862 4.06345 17.792 5.1381 18.8621L6.1981 17.8021C5.28732 16.8954 4.5992 15.7889 4.18781 14.5713C3.77641 13.3538 3.65294 12.0584 3.8271 10.7851L2.3401 10.5801Z" fill="#9DFF12"/>
</svg>
