<svg width="24" height="24" viewBox="0 0 24 24" fill="none" xmlns="http://www.w3.org/2000/svg">
<path d="M17.2599 11.44C19.8779 11.44 21.9999 9.327 21.9999 6.72C21.9999 4.113 19.8779 2 17.2599 2C14.6429 2 12.5209 4.113 12.5209 6.72C12.5209 7.928 13.0719 8.806 13.0719 8.806L7.3409 14.514C7.0839 14.77 6.7239 15.436 7.3409 16.051L8.0019 16.709C8.2589 16.929 8.9059 17.236 9.4349 16.709L10.2059 15.941C10.9779 16.709 11.8599 16.27 12.1899 15.831C12.7419 15.063 12.0799 14.294 12.0799 14.294L12.2999 14.074C13.3589 15.128 14.2849 14.514 14.6149 14.074C15.1659 13.306 14.6149 12.538 14.6149 12.538C14.3949 12.098 13.9539 12.098 14.5049 11.55L15.1659 10.891C15.6959 11.331 16.7829 11.441 17.2609 11.441L17.2599 11.44Z" stroke="#9DFF12" stroke-width="1.5" stroke-linejoin="round"/>
<path opacity="0.5" d="M17.2599 8.36625C17.4766 8.36677 17.6913 8.32461 17.8917 8.24218C18.0921 8.15974 18.2742 8.03865 18.4278 7.8858C18.5814 7.73296 18.7034 7.55136 18.7868 7.35137C18.8702 7.15138 18.9134 6.93693 18.9139 6.72024C18.9139 5.81024 18.1739 5.07324 17.2599 5.07324C17.0433 5.07285 16.8286 5.11514 16.6283 5.1977C16.4279 5.28025 16.2458 5.40146 16.0923 5.5544C15.9388 5.70733 15.817 5.88901 15.7337 6.08905C15.6504 6.28908 15.6073 6.50356 15.6069 6.72024C15.6069 7.63024 16.3459 8.36625 17.2599 8.36625Z" stroke="#9DFF12" stroke-width="1.5"/>
<path opacity="0.5" d="M22 14.993C21.936 17.787 21.67 19.419 20.554 20.534C19.088 22 16.73 22 12.01 22C7.29 22 4.932 22 3.466 20.534C2 19.068 2 16.71 2 11.99C2 7.27 2 4.912 3.466 3.446C4.58 2.33 6.213 2.064 9.007 2" stroke="#9DFF12" stroke-width="1.5" stroke-linecap="round"/>
</svg>
