<svg width="32" height="33" viewBox="0 0 32 33" fill="none" xmlns="http://www.w3.org/2000/svg">
<path fill-rule="evenodd" clip-rule="evenodd" d="M20.9067 7.38391C20.3901 7.38321 19.8785 7.48426 19.401 7.68128C18.9236 7.8783 18.4896 8.16744 18.1238 8.53219C17.7581 8.89694 17.4678 9.33015 17.2694 9.8071C17.0711 10.284 16.9687 10.7954 16.968 11.3119C16.9689 11.8284 17.0715 12.3398 17.27 12.8166C17.4684 13.2935 17.7589 13.7266 18.1248 14.0913C18.4906 14.4559 18.9247 14.7449 19.4023 14.9417C19.8798 15.1386 20.3915 15.2395 20.908 15.2386C21.951 15.24 22.9518 14.8271 23.6904 14.0908C24.429 13.3544 24.8449 12.3549 24.8467 11.3119C24.846 10.7954 24.7435 10.284 24.5452 9.8071C24.3469 9.33015 24.0566 8.89694 23.6909 8.53219C23.3251 8.16744 22.8911 7.8783 22.4136 7.68128C21.9361 7.48426 21.4232 7.38321 20.9067 7.38391ZM18.968 11.3119C18.9687 11.0579 19.0194 10.8065 19.1173 10.5722C19.2152 10.3378 19.3583 10.125 19.5385 9.94593C19.7187 9.76688 19.9323 9.62509 20.1673 9.52865C20.4023 9.43222 20.654 9.38304 20.908 9.38391C21.9827 9.38391 22.8467 10.2506 22.8467 11.3119C22.8449 11.8244 22.6397 12.3153 22.2762 12.6766C21.9126 13.0378 21.4205 13.24 20.908 13.2386C20.3955 13.24 19.9034 13.0378 19.5398 12.6766C19.1763 12.3153 18.9711 11.8244 18.9693 11.3119H18.968Z" fill="#9DFF12"/>
<path fill-rule="evenodd" clip-rule="evenodd" d="M12.7067 28.0905C13.0925 27.5682 13.295 26.933 13.2827 26.2838C13.8053 26.4385 14.3227 26.4571 14.8187 26.3638C15.8427 26.1691 16.6013 25.5211 17.004 24.9878L17.0107 24.9785L17.0173 24.9691C17.2977 24.5865 17.4903 24.1468 17.5815 23.6813C17.6728 23.2158 17.6604 22.736 17.5453 22.2758C17.448 21.8744 17.2858 21.4917 17.0653 21.1425C16.9639 20.9551 16.8422 20.7794 16.7027 20.6185L16.7147 20.6051L17.3333 19.9891C17.8427 20.2331 18.3947 20.3865 18.8773 20.4865C19.5457 20.6236 20.2257 20.6959 20.908 20.7025C26.1093 20.7025 30.3333 16.5025 30.3333 11.3105C30.3333 6.12113 26.1093 1.9198 20.9067 1.9198C15.7067 1.9198 11.4813 6.1198 11.4813 11.3105C11.4871 12.5217 11.746 13.7184 12.2413 14.8238L2.56665 24.4585C2.115 24.9153 1.81357 25.4991 1.70265 26.1318C1.57065 26.9358 1.78665 27.8305 2.56665 28.6065L3.74265 29.7771C4.2085 30.1879 4.78137 30.4579 5.39465 30.5558C5.8134 30.6204 6.24155 30.5834 6.64299 30.4479C7.04444 30.3124 7.40742 30.0823 7.70132 29.7771L8.45599 29.0251C9.1062 29.4053 9.87247 29.5361 10.612 29.3931C11.4373 29.2295 12.1758 28.7736 12.692 28.1091L12.7 28.0998L12.7067 28.0905ZM13.4813 11.3105C13.4813 7.23313 16.8027 3.9198 20.908 3.9198C25.012 3.9198 28.3333 7.23313 28.3333 11.3105C28.3333 15.3905 25.0133 18.7025 20.9067 18.7025C20.544 18.7025 19.916 18.6585 19.2827 18.5291C18.62 18.3905 18.1 18.1865 17.8227 17.9558C17.631 17.7972 17.3871 17.7157 17.1385 17.7273C16.89 17.7389 16.6547 17.8427 16.4787 18.0185L15.3027 19.1891C15.0347 19.4558 14.776 19.7598 14.6387 20.1105C14.4653 20.5545 14.5213 20.9811 14.7187 21.3371C14.836 21.5465 15.0253 21.7465 15.104 21.8305L15.1307 21.8585C15.224 21.9611 15.2733 22.0278 15.3107 22.1025L15.3467 22.1731L15.3867 22.2291L15.396 22.2425C15.4885 22.3971 15.5573 22.5647 15.6 22.7398C15.672 23.0451 15.672 23.4065 15.4 23.7931C15.1612 24.0991 14.8239 24.313 14.4453 24.3985C14.1027 24.4638 13.5427 24.4211 12.796 23.6785C12.6085 23.4916 12.3547 23.3867 12.09 23.3867C11.8253 23.3867 11.5714 23.4916 11.384 23.6785L10.992 24.0678C10.8108 24.2479 10.7054 24.4906 10.6974 24.746C10.6895 25.0014 10.7796 25.2501 10.9493 25.4411C11.0637 25.5954 11.1536 25.7662 11.216 25.9478C11.316 26.2478 11.332 26.5691 11.088 26.9158C10.928 27.1225 10.604 27.3585 10.236 27.4278C9.92399 27.4878 9.52399 27.4438 9.07332 26.9945C8.88587 26.8076 8.63199 26.7027 8.36732 26.7027C8.10265 26.7027 7.84877 26.8076 7.66132 26.9945L6.28932 28.3611C6.06932 28.5798 5.87599 28.6051 5.68665 28.5771C5.48083 28.5409 5.28685 28.4554 5.12132 28.3278L3.97865 27.1891C3.65999 26.8731 3.64799 26.6291 3.67599 26.4558C3.7189 26.237 3.82398 26.0351 3.97865 25.8745L14.1707 15.7238C14.3304 15.5645 14.4312 15.3557 14.4566 15.1317C14.4821 14.9076 14.4306 14.6815 14.3107 14.4905L14.308 14.4865C14.2687 14.4214 14.2323 14.3546 14.1987 14.2865C13.7329 13.3632 13.4873 12.3446 13.4813 11.3105ZM10.9347 25.4211C10.9347 25.4238 10.9373 25.4251 10.94 25.4278L10.9387 25.4265L10.9347 25.4211Z" fill="#9DFF12"/>
</svg>
