<svg width="36" height="36" viewBox="0 0 36 36" fill="none" xmlns="http://www.w3.org/2000/svg">
<path d="M15.675 23.25C16.3 23.875 17.0875 24.169 18.0375 24.132C18.9875 24.095 19.675 23.751 20.1 23.1L28.5 10.5L15.9 18.9C15.25 19.35 14.894 20.031 14.832 20.943C14.77 21.855 15.051 22.624 15.675 23.25ZM7.65 30C7.1 30 6.594 29.881 6.132 29.643C5.67 29.405 5.301 29.049 5.025 28.575C4.375 27.4 3.875 26.1815 3.525 24.9195C3.175 23.6575 3 22.351 3 21C3 18.925 3.394 16.975 4.182 15.15C4.97 13.325 6.0385 11.7375 7.3875 10.3875C8.7375 9.0375 10.325 7.969 12.15 7.182C13.975 6.395 15.925 6.001 18 6C20.05 6 21.975 6.3875 23.775 7.1625C25.575 7.9375 27.15 8.994 28.5 10.332C29.85 11.669 30.925 13.2315 31.725 15.0195C32.525 16.8075 32.9375 18.726 32.9625 20.775C32.9875 22.15 32.8315 23.494 32.4945 24.807C32.1575 26.12 31.6385 27.376 30.9375 28.575C30.6625 29.05 30.294 29.4065 29.832 29.6445C29.37 29.8825 28.863 30.001 28.311 30H7.65Z" fill="#9DFF12"/>
</svg>
