<svg width="16" height="16" viewBox="0 0 16 16" fill="none" xmlns="http://www.w3.org/2000/svg">
<path d="M10.1912 2.1018L9.57318 2.7198L3.89252 8.3998C3.50785 8.78513 3.31518 8.9778 3.14985 9.1898C2.95459 9.43998 2.78716 9.71069 2.65052 9.99713C2.53518 10.2398 2.44918 10.4985 2.27718 11.0145L1.54785 13.2018L1.36918 13.7365C1.32739 13.8611 1.32119 13.9949 1.35128 14.1229C1.38137 14.2508 1.44655 14.3679 1.5395 14.4608C1.63245 14.5538 1.74948 14.6189 1.87744 14.649C2.0054 14.6791 2.13922 14.6729 2.26385 14.6311L2.79852 14.4525L4.98585 13.7231C5.50252 13.5511 5.76052 13.4651 6.00318 13.3498C6.28985 13.2131 6.56052 13.0458 6.81052 12.8505C7.02252 12.6851 7.21518 12.4925 7.59985 12.1078L13.2805 6.42713L13.8985 5.80913C14.3901 5.31751 14.6663 4.65072 14.6663 3.95546C14.6663 3.26021 14.3901 2.59342 13.8985 2.1018C13.4069 1.61018 12.7401 1.33398 12.0448 1.33398C11.3496 1.33398 10.6828 1.61018 10.1912 2.1018Z" stroke="#9DFF12"/>
<path opacity="0.5" d="M9.57319 2.71973C9.57319 2.71973 9.65052 4.03306 10.8092 5.19173C11.9679 6.35039 13.2805 6.42706 13.2805 6.42706M2.79852 14.4531L1.54785 13.2011" stroke="#9DFF12"/>
</svg>
