<svg width="200" height="200" viewBox="0 0 200 200" fill="none" xmlns="http://www.w3.org/2000/svg">
<path d="M16.6667 100C16.6667 139.283 16.6667 158.925 28.8667 171.125C41.0834 183.333 60.7167 183.333 100 183.333C139.283 183.333 158.925 183.333 171.125 171.125C183.333 158.933 183.333 139.283 183.333 100V87.5M112.5 16.6666H100C60.7167 16.6666 41.075 16.6666 28.8667 28.8666C20.7584 36.9833 18.0334 48.3916 17.125 66.6666" stroke="#9DFF12" stroke-width="12.5" stroke-linecap="round"/>
<path d="M138.766 28.7917L144.175 23.3833C148.478 19.0813 154.314 16.6649 160.398 16.6656C166.483 16.6664 172.318 19.0843 176.62 23.3875C180.922 27.6906 183.339 33.5265 183.338 39.6113C183.337 45.696 180.919 51.5313 176.616 55.8333L171.2 61.2416C171.2 61.2416 159.716 60.5667 149.583 50.425C139.441 40.2917 138.766 28.8 138.766 28.8L89.0579 78.5C85.6912 81.8666 84.0079 83.55 82.5579 85.4083C80.8495 87.5916 79.3912 89.9666 78.1912 92.475C77.1829 94.6 76.4329 96.8583 74.9245 101.375L70.0995 115.833M70.0995 115.833L66.9829 125.183C66.6163 126.274 66.5612 127.445 66.8238 128.565C67.0864 129.685 67.6563 130.71 68.4693 131.523C69.2824 132.337 70.3063 132.908 71.4261 133.172C72.5459 133.436 73.717 133.382 74.8079 133.017L84.1662 129.9M70.0995 115.833L84.1662 129.9M171.208 61.2333L146.35 86.0833M121.5 110.942C118.133 114.308 116.45 115.992 114.591 117.442C112.401 119.149 110.032 120.614 107.525 121.808C105.4 122.817 103.141 123.567 98.6245 125.075L84.1662 129.9" stroke="#9DFF12" stroke-width="12.5" stroke-linecap="round"/>
</svg>
