<svg width="24" height="24" viewBox="0 0 24 24" fill="none" xmlns="http://www.w3.org/2000/svg">
<path d="M10.5769 8.704C11.2099 7.568 11.5269 7 11.9999 7C12.4729 7 12.7899 7.568 13.4229 8.704L13.5869 8.998C13.7669 9.321 13.8569 9.482 13.9969 9.588C14.1369 9.695 14.3129 9.735 14.6619 9.814L14.9799 9.886C16.2099 10.164 16.8249 10.303 16.9709 10.774C17.1179 11.244 16.6979 11.734 15.8599 12.715L15.6429 12.969C15.4049 13.247 15.2859 13.387 15.2329 13.559C15.1779 13.731 15.1959 13.917 15.2329 14.289L15.2649 14.627C15.3919 15.935 15.4549 16.589 15.0719 16.88C14.6889 17.17 14.1139 16.906 12.9619 16.376L12.6639 16.238C12.3369 16.088 12.1739 16.012 11.9999 16.012C11.8269 16.012 11.6629 16.088 11.3359 16.238L11.0379 16.376C9.88592 16.906 9.31092 17.171 8.92792 16.88C8.54492 16.59 8.60792 15.935 8.73492 14.627L8.76692 14.289C8.80392 13.917 8.82192 13.731 8.76692 13.559C8.71392 13.387 8.59492 13.247 8.35692 12.969L8.13992 12.715C7.30192 11.735 6.88192 11.245 7.02892 10.774C7.17492 10.304 7.78892 10.164 9.01892 9.886L9.33792 9.814C9.68792 9.734 9.86192 9.695 10.0029 9.589C10.1429 9.482 10.2329 9.321 10.4129 8.999L10.5769 8.704Z" stroke="#9DFF12" stroke-width="1.5"/>
<path opacity="0.5" d="M12 2V4M12 20V22M2 12H4M20 12H22" stroke="#9DFF12" stroke-width="1.5" stroke-linecap="round"/>
<path d="M6 18L6.343 17.657M17.657 6.343L18 6M18 18L17.657 17.657M6.343 6.343L6 6" stroke="#9DFF12" stroke-width="1.5" stroke-linecap="round"/>
</svg>
