<svg width="200" height="200" viewBox="0 0 200 200" fill="none" xmlns="http://www.w3.org/2000/svg">
<path fill-rule="evenodd" clip-rule="evenodd" d="M174.367 97.9166H151.917C140.05 97.9166 131.242 106.742 131.242 116.667C131.242 126.592 140.05 135.417 151.908 135.417H174.558C176.275 135.308 177.017 134.15 177.075 133.45V99.8833C177.017 99.1833 176.275 98.025 174.558 97.925H174.358L174.367 97.9166ZM173.75 85.4166C174.3 85.4166 174.833 85.4166 175.333 85.45C182.583 85.8916 189.008 91.3666 189.55 99.0166C189.583 99.5166 189.583 100.058 189.583 100.558V132.775C189.583 133.275 189.583 133.817 189.55 134.317C189.008 141.967 182.583 147.442 175.325 147.892C174.833 147.917 174.3 147.917 173.742 147.917H151.925C134.05 147.917 118.75 134.35 118.75 116.667C118.75 98.9833 134.05 85.4166 151.917 85.4166H173.75Z" fill="#9DFF12"/>
<path d="M158.333 116.667C158.333 118.877 157.455 120.996 155.893 122.559C154.33 124.122 152.21 125 150 125C147.79 125 145.67 124.122 144.107 122.559C142.545 120.996 141.667 118.877 141.667 116.667C141.667 114.457 142.545 112.337 144.107 110.774C145.67 109.211 147.79 108.333 150 108.333C152.21 108.333 154.33 109.211 155.893 110.774C157.455 112.337 158.333 114.457 158.333 116.667V116.667Z" fill="#9DFF12"/>
<path fill-rule="evenodd" clip-rule="evenodd" d="M173.75 85.4167C176.141 85.3263 178.52 85.7823 180.708 86.75C179.817 73.3667 177.358 63.05 169.658 55.3417C163.417 49.1083 155.508 46.3417 145.742 45.025L145.392 44.9833C145.304 44.9172 145.216 44.8533 145.125 44.7917L113.992 24.15C108.591 20.6257 102.282 18.749 95.8334 18.749C89.3847 18.749 83.0754 20.6257 77.675 24.15L46.55 44.7917C46.4567 44.8532 46.365 44.9171 46.275 44.9833L45.925 45.025C36.1584 46.3417 28.25 49.1083 22.0084 55.3417C15.775 61.5833 13.0084 69.4917 11.6917 79.2583C10.4167 88.7583 10.4167 100.883 10.4167 116.2V117.133C10.4167 132.45 10.4167 144.583 11.6917 154.075C13.0084 163.842 15.775 171.75 22.0084 177.992C28.25 184.225 36.1584 186.992 45.925 188.308C55.425 189.583 67.55 189.583 82.8667 189.583H108.8C124.117 189.583 136.25 189.583 145.742 188.308C155.508 186.992 163.417 184.225 169.658 177.992C177.358 170.283 179.817 159.967 180.708 146.575C179.025 147.325 177.208 147.775 175.325 147.892C174.833 147.917 174.3 147.917 173.742 147.917H168.067C167.117 159.092 164.975 165 160.817 169.15C157.292 172.675 152.458 174.792 144.075 175.917C135.517 177.067 124.225 177.083 108.333 177.083H83.3334C67.4417 177.083 56.1584 177.067 47.5834 175.917C39.2084 174.792 34.375 172.675 30.85 169.15C27.325 165.625 25.2084 160.792 24.0834 152.408C22.9334 143.85 22.9167 132.558 22.9167 116.667C22.9167 100.775 22.9334 89.4917 24.0834 80.9167C25.2084 72.5417 27.325 67.7083 30.85 64.1833C34.375 60.6583 39.2084 58.5417 47.5917 57.4167C56.1584 56.2667 67.4417 56.25 83.3334 56.25H108.333C124.225 56.25 135.517 56.2667 144.083 57.4167C152.458 58.5417 157.292 60.6583 160.817 64.1833C164.975 68.3333 167.117 74.2417 168.067 85.4167H173.75ZM82.8667 43.75H108.8C113.108 43.75 117.158 43.75 120.967 43.775L107.083 34.5667C100.417 30.15 91.25 30.15 84.5833 34.5667L70.6917 43.775C74.5083 43.75 78.5583 43.75 82.8583 43.75H82.8667Z" fill="#9DFF12"/>
<path d="M50 77.0834C48.3424 77.0834 46.7527 77.7419 45.5806 78.914C44.4085 80.0861 43.75 81.6758 43.75 83.3334C43.75 84.991 44.4085 86.5807 45.5806 87.7528C46.7527 88.9249 48.3424 89.5834 50 89.5834H83.3333C84.9909 89.5834 86.5806 88.9249 87.7527 87.7528C88.9248 86.5807 89.5833 84.991 89.5833 83.3334C89.5833 81.6758 88.9248 80.0861 87.7527 78.914C86.5806 77.7419 84.9909 77.0834 83.3333 77.0834H50Z" fill="#9DFF12"/>
<path d="M158.333 116.667C158.333 118.877 157.455 120.996 155.893 122.559C154.33 124.122 152.21 125 150 125C147.79 125 145.67 124.122 144.107 122.559C142.545 120.996 141.667 118.877 141.667 116.667C141.667 114.457 142.545 112.337 144.107 110.774C145.67 109.211 147.79 108.333 150 108.333C152.21 108.333 154.33 109.211 155.893 110.774C157.455 112.337 158.333 114.457 158.333 116.667V116.667Z" fill="#9DFF12"/>
</svg>
