<svg width="25" height="24" viewBox="0 0 25 24" fill="none" xmlns="http://www.w3.org/2000/svg">
<path d="M3.5 10.9111V10.7311C3.51823 9.39417 3.98251 8.10161 4.81915 7.05862C5.65579 6.01563 6.81684 5.28198 8.118 4.97413L8.294 4.93413L8.461 4.89813C11.1225 4.31911 13.8775 4.31911 16.539 4.89813L16.706 4.93513L16.882 4.97513C18.2129 5.28997 19.3963 6.05003 20.2362 7.1294C21.076 8.20878 21.5219 9.54268 21.5 10.9101V16.3741C21.4999 17.4022 21.1494 18.3994 20.5062 19.2014C19.8629 20.0033 18.9655 20.562 17.962 20.7851C14.364 21.5851 10.636 21.5851 7.039 20.7851C6.03564 20.5622 5.13824 20.004 4.49486 19.2024C3.85148 18.4009 3.50056 17.404 3.5 16.3761V10.9101V10.9111Z" stroke="#999999" stroke-width="1.5"/>
<path opacity="0.5" d="M18 15.5V17M16.459 4.5C16.3408 3.80079 15.9788 3.16605 15.4371 2.7084C14.8954 2.25075 14.2091 1.99977 13.5 2H11.5C10.7909 1.99977 10.1046 2.25075 9.56293 2.7084C9.02125 3.16605 8.6592 3.80079 8.54102 4.5" stroke="#999999" stroke-width="1.5" stroke-linecap="round"/>
<path d="M3.5 14C6.33335 15.2593 9.39942 15.9099 12.5 15.9099C15.6006 15.9099 18.6667 15.2593 21.5 14" stroke="#999999" stroke-width="1.5" stroke-linecap="round"/>
<path opacity="0.5" d="M10.5 13H14.5" stroke="#999999" stroke-width="1.5" stroke-linecap="round"/>
</svg>
