<svg width="24" height="24" viewBox="0 0 24 24" fill="none" xmlns="http://www.w3.org/2000/svg">
<path opacity="0.5" d="M22 12C22 17.523 17.523 22 12 22C6.477 22 2 17.523 2 12C2 6.477 6.477 2 12 2C17.523 2 22 6.477 22 12Z" fill="#9DFF12"/>
<path d="M8.97007 8.97015C9.1107 8.8297 9.30132 8.75081 9.50007 8.75081C9.69882 8.75081 9.88945 8.8297 10.0301 8.97015L12.0001 10.9402L13.9701 8.97015C14.0387 8.89647 14.1215 8.83736 14.2135 8.79637C14.3055 8.75538 14.4048 8.73334 14.5056 8.73156C14.6063 8.72979 14.7063 8.74831 14.7997 8.78603C14.8931 8.82375 14.9779 8.8799 15.0491 8.95112C15.1203 9.02233 15.1765 9.10717 15.2142 9.20056C15.2519 9.29394 15.2704 9.39397 15.2687 9.49468C15.2669 9.59538 15.2448 9.69469 15.2039 9.78669C15.1629 9.87869 15.1038 9.96149 15.0301 10.0302L13.0601 12.0002L15.0301 13.9702C15.1626 14.1123 15.2347 14.3004 15.2312 14.4947C15.2278 14.689 15.1491 14.8744 15.0117 15.0118C14.8743 15.1492 14.6889 15.2279 14.4946 15.2313C14.3003 15.2348 14.1122 15.1626 13.9701 15.0302L12.0001 13.0602L10.0301 15.0302C9.8879 15.1626 9.69985 15.2348 9.50555 15.2313C9.31125 15.2279 9.12586 15.1492 8.98845 15.0118C8.85104 14.8744 8.77233 14.689 8.7689 14.4947C8.76547 14.3004 8.83759 14.1123 8.97007 13.9702L10.9401 12.0002L8.97007 10.0302C8.82962 9.88953 8.75073 9.6989 8.75073 9.50015C8.75073 9.3014 8.82962 9.11078 8.97007 8.97015Z" fill="#9DFF12"/>
</svg>
