<svg width="25" height="24" viewBox="0 0 25 24" fill="none" xmlns="http://www.w3.org/2000/svg">
<path d="M12.5 16.0002C6.73997 16.0002 5.71997 10.2602 5.53997 5.70624C5.48897 4.44024 5.46397 3.80624 5.93997 3.22124C6.41497 2.63524 6.98397 2.53924 8.12297 2.34724C9.56979 2.11011 11.0339 1.99404 12.5 2.00024C14.284 2.00024 15.753 2.15724 16.877 2.34724C18.016 2.53924 18.585 2.63524 19.061 3.22124C19.537 3.80724 19.511 4.44024 19.461 5.70624C19.281 10.2592 18.261 16.0002 12.501 16.0002H12.5Z" stroke="#999999" stroke-width="1.5"/>
<path opacity="0.5" d="M12.5 16V19" stroke="#999999" stroke-width="1.5" stroke-linecap="round"/>
<path d="M16 22H9L9.34 20.304C9.38529 20.0774 9.50768 19.8735 9.68634 19.7269C9.865 19.5803 10.0889 19.5001 10.32 19.5H14.68C14.9111 19.5001 15.135 19.5803 15.3137 19.7269C15.4923 19.8735 15.6147 20.0774 15.66 20.304L16 22Z" stroke="#999999" stroke-width="1.5" stroke-linecap="round" stroke-linejoin="round"/>
<path opacity="0.5" d="M19.5 5L20.449 5.316C21.439 5.646 21.934 5.811 22.217 6.204C22.5 6.597 22.5 7.119 22.5 8.162V8.235C22.5 9.095 22.5 9.526 22.293 9.878C22.086 10.23 21.709 10.439 20.957 10.858L18 12.5M5.5 5L4.551 5.316C3.561 5.646 3.066 5.811 2.783 6.204C2.5 6.597 2.5 7.12 2.5 8.162V8.235C2.5 9.095 2.5 9.526 2.707 9.878C2.914 10.23 3.291 10.439 4.043 10.858L7 12.5" stroke="#999999" stroke-width="1.5"/>
<path d="M11.646 6.023C12.026 5.34 12.216 5 12.5 5C12.784 5 12.974 5.34 13.354 6.023L13.452 6.199C13.56 6.393 13.614 6.489 13.698 6.553C13.783 6.617 13.888 6.641 14.098 6.688L14.288 6.732C15.026 6.899 15.395 6.982 15.483 7.264C15.571 7.547 15.319 7.841 14.816 8.429L14.686 8.581C14.543 8.748 14.471 8.831 14.439 8.935C14.407 9.039 14.418 9.15 14.439 9.373L14.459 9.576C14.535 10.361 14.573 10.754 14.344 10.928C14.114 11.102 13.768 10.943 13.077 10.625L12.899 10.543C12.702 10.453 12.604 10.408 12.5 10.408C12.396 10.408 12.298 10.453 12.101 10.543L11.923 10.625C11.232 10.944 10.886 11.102 10.656 10.928C10.426 10.754 10.465 10.361 10.541 9.576L10.561 9.373C10.582 9.15 10.593 9.039 10.561 8.935C10.529 8.832 10.457 8.748 10.314 8.581L10.184 8.429C9.68104 7.841 9.42904 7.547 9.51704 7.264C9.60504 6.982 9.97404 6.899 10.712 6.732L10.902 6.688C11.112 6.641 11.217 6.618 11.302 6.553C11.386 6.489 11.44 6.393 11.548 6.199L11.646 6.023Z" stroke="#999999" stroke-width="1.5"/>
<path opacity="0.5" d="M18.5 22H6.5" stroke="#999999" stroke-width="1.5" stroke-linecap="round"/>
</svg>
