<svg width="25" height="24" viewBox="0 0 25 24" fill="none" xmlns="http://www.w3.org/2000/svg">
<path d="M14.4264 9.70504C14.0474 9.33404 14.0474 8.74204 14.0474 7.55704V7.24704C14.0474 3.96204 14.0474 2.32004 13.1244 2.03704C12.2014 1.75404 11.2114 3.09304 9.23236 5.77104L6.17036 9.91404C4.88536 11.653 4.24236 12.522 4.59636 13.205L4.61436 13.239C4.98936 13.912 6.09936 13.912 8.31836 13.912C9.55136 13.912 10.1684 13.912 10.5544 14.275" fill="black"/>
<path opacity="0.5" d="M14.4267 9.70599L14.4467 9.72499C14.8337 10.089 15.4497 10.089 16.6827 10.089C18.9027 10.089 20.0117 10.089 20.3857 10.761L20.4047 10.795C20.7587 11.479 20.1157 12.348 18.8307 14.085L15.7687 18.229C13.7887 20.907 12.7997 22.246 11.8767 21.963C10.9527 21.68 10.9527 20.038 10.9537 16.753V16.443C10.9537 15.259 10.9537 14.666 10.5747 14.295L10.5547 14.275" fill="black"/>
</svg>
