<svg width="24" height="25" viewBox="0 0 24 25" fill="none" xmlns="http://www.w3.org/2000/svg">
<path d="M13.926 10.2047C13.547 9.83373 13.547 9.24173 13.547 8.05673V7.74673C13.547 4.46173 13.547 2.81973 12.624 2.53673C11.701 2.25373 10.711 3.59273 8.73199 6.27073L5.66999 10.4137C4.38499 12.1527 3.74199 13.0217 4.09599 13.7047L4.11399 13.7387C4.48899 14.4117 5.59899 14.4117 7.81799 14.4117C9.05099 14.4117 9.66799 14.4117 10.054 14.7747" fill="#9DFF12"/>
<path opacity="0.5" d="M13.9261 10.2061L13.9461 10.2251C14.3331 10.5891 14.9491 10.5891 16.1821 10.5891C18.4021 10.5891 19.5111 10.5891 19.8851 11.2611L19.9041 11.2951C20.2581 11.9791 19.6151 12.8481 18.3301 14.5851L15.2681 18.7291C13.2881 21.4071 12.2991 22.7461 11.3761 22.4631C10.4521 22.1801 10.4521 20.5381 10.4531 17.2531V16.9431C10.4531 15.7591 10.4531 15.1661 10.0741 14.7951L10.0541 14.7751" fill="#9DFF12"/>
</svg>
