<svg width="25" height="24" viewBox="0 0 25 24" fill="none" xmlns="http://www.w3.org/2000/svg">
<path d="M14.676 9.70473C14.297 9.33373 14.297 8.74173 14.297 7.55673V7.24673C14.297 3.96173 14.297 2.31973 13.374 2.03673C12.451 1.75373 11.461 3.09273 9.48199 5.77073L6.41999 9.91373C5.13499 11.6527 4.49199 12.5217 4.84599 13.2047L4.86399 13.2387C5.23899 13.9117 6.34899 13.9117 8.56799 13.9117C9.80099 13.9117 10.418 13.9117 10.804 14.2747" fill="white"/>
<path opacity="0.5" d="M14.676 9.70605L14.696 9.72505C15.083 10.0891 15.699 10.0891 16.932 10.0891C19.152 10.0891 20.261 10.0891 20.635 10.7611L20.654 10.7951C21.008 11.4791 20.365 12.3481 19.08 14.0851L16.018 18.2291C14.038 20.9071 13.049 22.2461 12.126 21.9631C11.202 21.6801 11.202 20.0381 11.203 16.7531V16.4431C11.203 15.2591 11.203 14.6661 10.824 14.2951L10.804 14.2751" fill="white"/>
</svg>
