<svg width="24" height="24" viewBox="0 0 24 24" fill="none" xmlns="http://www.w3.org/2000/svg">
<path d="M16.3595 17.4482L16.1908 17.019C17.1138 16.5965 17.9165 16.048 18.6054 15.4552L18.7704 15.6311L18.7709 15.6306L18.9207 15.7904C18.1958 16.4169 17.3439 17.0007 16.3595 17.4482ZM19.6487 15.1049L19.3345 14.7698C20.2448 13.84 21.0157 12.7824 21.6227 11.6299L21.8569 11.7302L21.8572 11.7303L22.0438 11.8102C21.4115 13.0202 20.6044 14.1303 19.6487 15.1049ZM12.8243 17.8401C13.7062 17.7951 14.5172 17.6326 15.2597 17.3859L15.4285 17.8144C14.6349 18.0796 13.7673 18.2541 12.8243 18.3001V17.8401ZM11.8243 18.2991C8.59575 18.142 6.26867 16.4803 4.73649 14.832C3.93322 13.9657 3.34655 13.101 2.96113 12.4523L2.96069 12.4516C2.83534 12.2415 2.71628 12.0277 2.60366 11.8106L2.78938 11.7312L2.79133 11.7303L3.02618 11.6299C3.13017 11.8291 3.23979 12.0253 3.35493 12.2184C3.84587 13.0434 4.42175 13.8149 5.07319 14.5201L5.07399 14.521C6.54848 16.1097 8.76369 17.6838 11.8243 17.8401V18.2991Z" fill="#9DFF12" stroke="#999999"/>
<path opacity="0.5" d="M12.0945 18.5815H12.554V20.0139H12.0945V18.5815ZM16.7236 19.2479L15.8949 17.9731L16.28 17.7225L17.1094 18.9967L16.7236 19.2479ZM8.36819 17.7222L8.75355 17.973L7.92483 19.2472L7.53923 18.9965L8.36819 17.7222ZM20.4032 16.2317L20.0789 16.5561L19.3267 15.8039L19.6514 15.4795L20.4032 16.2317ZM5.32186 15.8039L4.56967 16.5561L4.24445 16.2309L4.99648 15.4789L5.32186 15.8039Z" fill="#9DFF12" stroke="#999999"/>
</svg>
