<svg width="20" height="21" viewBox="0 0 20 21" fill="none" xmlns="http://www.w3.org/2000/svg">
<path d="M5.11254 19.2197L5.11199 19.2205L5.00143 19.1566L4.89166 19.0932L4.89207 19.0925C2.67359 17.7748 1.07742 15.6936 0.378525 13.2091L0.377975 13.2102L0.345161 13.0879L0.344091 13.0873L0.312092 12.9643L0.312636 12.9633C-0.325553 10.4801 0.0212316 7.84637 1.28043 5.61306L1.27962 5.61252L1.34362 5.50164L1.40707 5.39187L1.40775 5.39231C2.72647 3.17384 4.80682 1.57734 7.29007 0.87807L7.41268 0.844201L7.41415 0.84389L7.5366 0.81122L7.53551 0.812996C10.0367 0.175838 12.637 0.517866 14.8872 1.78055L14.8879 1.77948L14.9977 1.84291L15.1082 1.90679L15.1077 1.90785C17.3158 3.21181 18.9333 5.32008 19.6209 7.79056L19.6228 7.78919L19.6555 7.91152L19.6559 7.91277L19.6877 8.0359L19.687 8.03546C20.3238 10.5362 19.9825 13.1365 18.7196 15.3875L18.7207 15.3879L18.6573 15.4978L18.5933 15.6087L18.5923 15.6081C17.2882 17.8159 15.18 19.4331 12.7096 20.1207L12.7098 20.1222L12.5873 20.1559L12.5865 20.1554L12.4642 20.1882L12.4641 20.1868C11.6529 20.3941 10.8189 20.4993 9.98167 20.4999C8.27557 20.4988 6.59858 20.0578 5.11254 19.2197ZM12.3894 18.9251L12.6434 19.8757C15.0488 19.2055 17.1015 17.6305 18.3715 15.4806L17.5185 14.9882C16.3784 16.9109 14.5416 18.3208 12.3894 18.9251ZM1.00301 13.0433L0.62402 13.1431C1.30437 15.5624 2.85977 17.5881 5.01925 18.8723L5.51205 18.0186C3.58914 16.8784 2.17921 15.0415 1.57496 12.8891L1.00301 13.0433ZM4.18808 16.4646C5.71247 17.9587 7.75598 18.8049 9.8904 18.8258V17.984C7.97931 17.9618 6.15022 17.2042 4.78295 15.8688L4.18808 16.4646ZM4.86021 5.36004L4.84884 5.37114C3.49064 6.73514 2.72901 8.58227 2.73109 10.5072C2.73316 12.4321 3.49877 14.2775 4.85991 15.6386V15.6395C6.22184 17.0008 8.06827 17.7661 9.99387 17.7673C11.9195 17.7686 13.7669 17.0057 15.1306 15.6462L15.1389 15.6386C16.5114 14.2644 17.2677 12.4412 17.2677 10.4996C17.2677 9.06209 16.8413 7.6569 16.0427 6.46169C15.244 5.26647 14.1089 4.33492 12.7809 3.7848C11.4528 3.23469 9.99149 3.09071 8.58163 3.3711C7.17176 3.65148 5.87672 4.34365 4.86021 5.36004ZM15.3689 15.7157L15.965 16.3113C17.4586 14.7859 18.305 12.7424 18.3275 10.6076H17.484C17.4617 12.5189 16.7043 14.3481 15.3689 15.7156V15.7157ZM1.67284 10.3908H2.51441C2.53669 8.47993 3.29397 6.651 4.62905 5.28369L4.27112 4.92494L4.03524 4.68732C2.54076 6.21205 1.69419 8.25591 1.67284 10.3908ZM14.4876 2.98158C16.4108 4.12152 17.8209 5.95846 18.4251 8.11088L19.3762 7.85608C18.6946 5.43718 17.1409 3.41095 14.9808 2.12731L14.4876 2.98158ZM1.62788 5.51944L2.48121 6.01212C3.62166 4.08935 5.45863 2.67952 7.61092 2.0752L7.35588 1.12399C4.95079 1.79489 2.8983 3.3699 1.62786 5.51948L1.62788 5.51944ZM10.1081 3.01425C12.0188 3.03729 13.8475 3.79475 15.2149 5.12962L15.8112 4.53391C14.2862 3.04021 12.2426 2.19425 10.1081 2.17308V3.01425ZM8.66917 16.9681C7.82469 16.795 7.02253 16.4574 6.3084 15.9746C5.24693 15.258 4.41605 14.249 3.91643 13.0698C3.74759 12.6704 3.61874 12.2553 3.53175 11.8305C3.35281 10.9524 3.35281 10.0473 3.53175 9.16929C3.70468 8.32477 4.04221 7.52257 4.52507 6.80846C5.2416 5.74696 6.25061 4.91606 7.42983 4.41646C7.82921 4.24754 8.24434 4.11865 8.66915 4.03165C9.54716 3.85285 10.4522 3.85285 11.3302 4.03165C12.1747 4.20472 12.9769 4.54229 13.691 5.02512C14.7524 5.74173 15.5834 6.75078 16.0831 7.92999C16.2519 8.32941 16.3807 8.7445 16.4678 9.16929C16.6465 10.0473 16.6465 10.9524 16.4678 11.8305C16.2949 12.675 15.9573 13.4772 15.4743 14.1913C14.7578 15.2528 13.7488 16.0837 12.5696 16.5833C12.1702 16.7522 11.755 16.8811 11.3302 16.9681C10.4522 17.1468 9.54719 17.1468 8.66917 16.9681V16.9681ZM11.4778 11.5783V14.762L14.0486 14.7621V6.22869L11.4778 6.22856V9.38857H8.52631V6.22869L5.9557 6.22856V14.762L8.52631 14.7621V11.5783H11.4778Z" fill="#9DFF12"/>
</svg>
