<svg width="24" height="25" viewBox="0 0 24 25" fill="none" xmlns="http://www.w3.org/2000/svg">
<path d="M6.99457 21.2189L6.99354 21.2201L6.88616 21.1563L6.77917 21.0919V21.091C4.62193 19.7877 3.04167 17.6795 2.36998 15.2089V15.2101L2.33751 15.0875H2.33622L2.30504 14.9642V14.9634C1.68225 12.4801 2.02081 9.84648 3.25009 7.61284H3.24892L3.3127 7.50251L3.37415 7.39324H3.37519C4.64922 5.18542 6.70802 3.56754 9.12051 2.87813L9.23979 2.84449H9.24173L9.36127 2.81204L9.36049 2.8131C11.7862 2.17416 14.3592 2.52105 16.5405 3.78118L16.5417 3.77986L16.6482 3.84409L16.7572 3.90807L16.7561 3.909C18.9128 5.21231 20.4926 7.31999 21.1643 9.79006L21.1656 9.78913L21.1981 9.91152V9.9135L21.2302 10.0363L21.229 10.0356C21.8531 12.5192 21.5144 15.1536 20.2838 17.3873L20.2847 17.3883L20.2232 17.4972L20.1609 17.609L20.1589 17.6083C18.8854 19.8163 16.8263 21.4338 14.4134 22.1215V22.1221L14.2943 22.1556H14.2934L14.1737 22.1889V22.187C13.3816 22.3943 12.5673 22.4995 11.7497 22.5C10.0834 22.4984 8.44571 22.0572 6.99457 21.2189ZM14.1024 20.9244L14.3494 21.8755C16.6985 21.2045 18.7032 19.6294 19.944 17.4797L19.1102 16.9873C17.997 18.9099 16.2034 20.3199 14.1018 20.9248L14.1024 20.9244ZM2.97957 15.0424L2.60971 15.143C3.26458 17.5486 4.80291 19.6016 6.90285 20.8721L7.38385 20.018C5.50591 18.8776 4.12864 17.0409 3.53781 14.8889L2.97957 15.0424ZM6.09066 18.4638C7.57984 19.9583 9.57615 20.8049 11.6613 20.8264V19.9848C9.79465 19.962 8.00818 19.2045 6.67244 17.8694L6.09066 18.4638ZM6.7476 7.36132L6.73609 7.3731C5.40992 8.73708 4.6663 10.5838 4.66837 12.5083C4.67044 14.4328 5.41794 16.278 6.74709 17.6389V17.6401C8.07727 19.0016 9.88081 19.7672 11.7617 19.7685C13.6426 19.7698 15.4472 19.007 16.7793 17.6474L16.7871 17.6389C17.4464 16.9641 17.9693 16.163 18.3261 15.2812C18.6828 14.3995 18.8665 13.4544 18.8665 12.5C18.8665 11.5457 18.6828 10.6005 18.326 9.7188C17.9692 8.83708 17.4462 8.03602 16.787 7.36118C16.1278 6.68635 15.3451 6.15098 14.4839 5.78569C13.6226 5.42039 12.6995 5.23244 11.7673 5.23244C10.835 5.23244 9.91186 5.42052 9.05065 5.78582C8.1893 6.15098 7.40674 6.68635 6.7476 7.36132ZM17.0116 17.7159L17.5932 18.3113C19.0522 16.7868 19.8792 14.7438 19.9012 12.6095H19.0779C19.0557 14.5201 18.3157 16.3486 17.0116 17.7152V17.7159ZM3.63393 12.3903H4.45659C4.47858 10.4796 5.21845 8.65085 6.52263 7.28383L6.17139 6.92622L5.94215 6.68873C4.48259 8.21297 3.65553 10.256 3.63393 12.3903ZM16.1506 4.98211C18.0289 6.12158 19.4065 7.95801 19.9969 10.1099L20.9259 9.85562C20.2701 7.45072 18.7318 5.39853 16.6324 4.12807L16.1506 4.98211ZM3.59072 7.51933L4.42308 8.01178C5.53735 6.08953 7.33132 4.67999 9.43319 4.07522L9.18416 3.12529C6.83558 3.79575 4.83125 5.37032 3.59072 7.51933ZM11.8735 5.01549C13.7402 5.03761 15.5269 5.79483 16.8628 7.12979L17.4434 6.53522C15.9542 5.04118 13.9583 4.19469 11.8734 4.17284L11.8735 5.01549ZM10.3465 19.1216C10.2588 18.8272 10.1709 18.5339 10.105 18.2315C10.0644 18.0452 10.028 17.858 9.99582 17.6699C9.96206 17.4674 9.94615 17.255 9.90035 17.0552C9.89944 17.0534 9.89944 17.0524 9.89763 17.0519C9.89919 17.0491 9.90009 17.0461 9.90022 17.0429C9.90048 17.0397 9.89996 17.0366 9.8988 17.0336C9.89763 17.0306 9.89569 17.0281 9.89336 17.026C9.89104 17.0238 9.88819 17.0224 9.88521 17.0216C9.54264 16.9191 9.20641 16.7819 8.87315 16.6515C8.53136 16.5192 8.19719 16.3672 7.87222 16.1962C7.22187 15.8471 6.61332 15.422 6.05897 14.929C5.89842 14.7882 5.74279 14.6416 5.59233 14.4895C5.5235 14.4199 5.45533 14.3495 5.38767 14.2785C5.13358 13.355 5.06372 12.3886 5.18197 11.4368C5.24743 11.4536 5.30862 11.4848 5.36115 11.5283L5.37602 11.5397C5.44938 11.3163 5.59013 11.2184 5.77422 11.2661C5.76181 11.1885 5.76116 11.1093 5.77241 11.0314C5.84796 10.6555 6.19131 10.3217 6.44177 10.078L6.44876 10.0706C6.6423 9.8894 6.84825 9.72277 7.06508 9.57191C7.3625 9.34701 7.6303 9.08357 7.86187 8.78847C7.97597 8.63787 8.08076 8.48012 8.17572 8.31615C8.26511 8.169 8.29422 8.06251 8.19267 7.92092C8.12501 7.83032 8.04066 7.75403 7.94441 7.69655C7.92798 7.69032 7.91193 7.68304 7.89641 7.6747C7.87571 7.66436 7.85566 7.65284 7.83638 7.63986C7.76937 7.60926 7.69925 7.58675 7.62719 7.57271C7.49562 7.54476 7.32434 7.55032 7.2656 7.72635C7.1374 8.12344 7.3277 8.63761 7.51115 8.99761L7.46147 9.02781C7.21929 8.69748 7.08034 8.29999 7.06275 7.88741C7.05861 7.80807 7.07012 7.72873 7.0969 7.65417C7.12355 7.57946 7.16482 7.51125 7.21812 7.4535C7.27815 7.40224 7.34956 7.36714 7.42615 7.35112C7.5801 7.2433 7.75384 7.1686 7.93677 7.13151C8.1197 7.09443 8.30807 7.09575 8.49048 7.13536C8.60639 7.16529 8.71933 7.20582 8.82813 7.25655C9.03849 7.34661 9.23668 7.43244 9.49413 7.35218C9.59944 7.31403 9.69931 7.26185 9.79129 7.19708L9.83502 7.17045C10.3892 6.82675 11.0457 6.79337 11.6728 6.789H11.7139C12.38 6.78569 13.3864 6.78052 13.9284 7.25006L13.9309 7.25151C14.1665 7.51098 14.2767 7.43695 14.4601 7.31297C14.5618 7.23708 14.6751 7.17906 14.7955 7.14132C15.1433 7.07694 15.5018 7.11496 15.8294 7.25085C15.8374 7.25191 15.845 7.25483 15.8519 7.2592C15.8589 7.26185 15.8656 7.26476 15.8732 7.26794C15.8904 7.27165 15.9073 7.27668 15.9238 7.28277C15.9351 7.28767 15.9448 7.29549 15.9522 7.30542C15.9595 7.31536 15.9643 7.32714 15.9659 7.33946C16.0721 7.3441 16.174 7.3837 16.2563 7.45258C16.3095 7.51046 16.3506 7.57867 16.3774 7.65324C16.4042 7.72781 16.4159 7.80715 16.4121 7.88648C16.3946 8.29933 16.2554 8.69708 16.0128 9.02741L15.9651 8.99734C16.1456 8.63628 16.3365 8.12277 16.2082 7.72609C16.1491 7.54926 15.9801 7.5445 15.8471 7.57244C15.6239 7.61483 15.4234 7.73854 15.2825 7.92065C15.1816 8.06264 15.2112 8.16887 15.3001 8.31496C15.395 8.47893 15.4997 8.63655 15.614 8.78688C15.8449 9.08344 16.1132 9.34741 16.4121 9.57152C16.6282 9.72264 16.8338 9.8894 17.027 10.0703L17.035 10.0788C17.285 10.3222 17.6274 10.6554 17.7023 11.0287C17.7142 11.1074 17.7139 11.1875 17.7014 11.2662C17.7041 11.2648 17.7071 11.264 17.7102 11.264C17.891 11.2221 18.0274 11.3199 18.0996 11.5399C18.1047 11.5354 18.1102 11.5313 18.1159 11.5275C18.1406 11.5075 18.1672 11.4901 18.1952 11.4754C18.254 11.4424 18.3205 11.4264 18.3875 11.4289C18.4258 11.7322 18.4452 12.0377 18.4458 12.3437C18.4464 13.0056 18.3557 13.6642 18.1764 14.3001C17.967 14.5188 17.7503 14.7318 17.5254 14.9287C16.9711 15.4217 16.3626 15.847 15.7122 16.1959C15.3871 16.3668 15.0529 16.5188 14.7111 16.6513C14.3777 16.7816 14.0425 16.9188 13.698 17.0213C13.6957 17.0219 13.6935 17.0228 13.6915 17.0242C13.6896 17.0256 13.6879 17.0273 13.6868 17.0294C13.6855 17.0314 13.6846 17.0336 13.6842 17.036C13.6838 17.0384 13.6838 17.0409 13.6843 17.0433C13.6818 17.0441 13.6795 17.0456 13.678 17.0477C13.6763 17.0498 13.6752 17.0523 13.675 17.055C13.6269 17.254 13.6108 17.4664 13.5779 17.6697C13.546 17.8577 13.5096 18.045 13.4688 18.2313C13.4039 18.5286 13.3175 18.8168 13.232 19.1061L13.229 19.1201C12.28 19.3397 11.2951 19.34 10.3459 19.1209L10.3465 19.1216ZM12.3774 14.0666C12.4855 14.0668 12.592 14.0395 12.6872 13.987C12.9545 13.8475 13.1949 13.6597 13.3968 13.4326C13.41 13.4393 13.4237 13.4452 13.4377 13.4499C13.5614 13.4951 13.6948 13.5042 13.8231 13.4764L13.8971 13.4583L13.8301 13.4205C13.7276 13.3665 13.6206 13.3221 13.5104 13.2878L13.4883 13.2752L13.4571 13.2646C13.4322 13.2502 13.4103 13.2307 13.393 13.2073C13.3606 13.1596 13.334 13.1079 13.3139 13.0536L13.2852 12.9882L13.2611 13.0562C13.2451 13.1028 13.24 13.1526 13.2461 13.2016C13.2523 13.2506 13.2695 13.2975 13.2964 13.3384C13.1844 13.391 13.0746 13.4481 12.9678 13.5045L12.8897 13.5465C12.8403 13.5709 12.7911 13.5993 12.7442 13.6246C12.6561 13.6789 12.5633 13.7248 12.4671 13.7619C12.3698 13.7924 12.2667 13.7979 12.1668 13.7775C12.0418 13.7506 11.921 13.7064 11.8078 13.6458C11.8003 13.6419 11.7937 13.6364 11.7882 13.6298C11.7829 13.6233 11.7788 13.6156 11.7763 13.6074C11.7739 13.5992 11.7731 13.5905 11.774 13.582C11.775 13.5734 11.7776 13.5652 11.7818 13.5576C11.7587 13.5698 11.7333 13.5762 11.7074 13.5762C11.6815 13.5762 11.656 13.5698 11.633 13.5576C11.6396 13.5689 11.6426 13.5819 11.6415 13.5948C11.6405 13.6079 11.6355 13.6203 11.6272 13.6302C11.6216 13.6368 11.6148 13.6421 11.6071 13.6458C11.4944 13.7062 11.374 13.7502 11.2494 13.7766C11.1489 13.7976 11.0449 13.7926 10.9468 13.7619C10.8516 13.724 10.7596 13.6781 10.6719 13.6246C10.6238 13.5993 10.5733 13.5709 10.5248 13.5465L10.4484 13.5058C10.3381 13.4482 10.2239 13.3882 10.1063 13.3323C10.1315 13.2918 10.1474 13.246 10.153 13.1983C10.1586 13.1506 10.1535 13.1022 10.1384 13.0568L10.1143 12.9889L10.0861 13.0543C10.0656 13.1081 10.0388 13.1592 10.0064 13.2065C9.99052 13.2285 9.97073 13.2474 9.94822 13.2622L9.90126 13.284L9.89155 13.2873C9.78055 13.3225 9.67266 13.3671 9.56891 13.4207L9.50202 13.4584L9.57602 13.4766C9.70435 13.5044 9.83761 13.4952 9.96103 13.4501C9.9794 13.4441 9.99699 13.4362 10.0137 13.4264C10.2159 13.6576 10.4585 13.8483 10.729 13.9886C10.8239 14.0399 10.9297 14.0666 11.0371 14.0666C11.1706 14.0619 11.301 14.0246 11.4176 13.958C11.5343 13.8914 11.6336 13.7972 11.7076 13.6834C11.7814 13.7973 11.8806 13.8917 11.997 13.9583C12.1136 14.0249 12.244 14.0621 12.3774 14.0666ZM11.5132 12.2871C11.4126 12.3109 11.3248 12.3735 11.2683 12.462C11.2309 12.5173 11.2072 12.5811 11.1994 12.6479C11.1915 12.7147 11.1995 12.7824 11.2229 12.8453C11.2384 12.8715 11.2596 12.8935 11.2851 12.9098C11.3105 12.926 11.3392 12.9358 11.369 12.9385C11.4115 12.9478 11.4528 12.9625 11.4919 12.9824C11.5748 13.038 11.6355 13.1222 11.6628 13.2199C11.6915 13.289 11.7174 13.3539 11.7741 13.3539H11.7789C11.8335 13.3518 11.8591 13.2914 11.8818 13.2295C11.9075 13.151 11.9524 13.0805 12.0122 13.0248C12.0588 12.9865 12.1156 12.9633 12.1751 12.9584C12.2048 12.9577 12.2339 12.9495 12.2599 12.9347C12.2859 12.9197 12.3079 12.8985 12.3241 12.873C12.3536 12.7981 12.3634 12.7168 12.3527 12.6369C12.342 12.5571 12.3109 12.4815 12.2628 12.4176C12.2115 12.3448 12.1369 12.2927 12.0519 12.2706C12.0092 12.2583 11.9641 12.2577 11.9211 12.2689C11.8748 12.2773 11.828 12.2829 11.7809 12.2857C11.732 12.2885 11.6829 12.2868 11.6343 12.2808C11.6186 12.2788 11.6029 12.2776 11.5871 12.2775C11.5621 12.2772 11.5373 12.2805 11.5132 12.2871ZM14.4606 10.7293C14.3041 10.7359 14.1508 10.7773 14.0113 10.8507C13.872 10.9241 13.7499 11.0277 13.6535 11.1542C13.5526 11.2799 13.2805 11.6132 13.3338 11.9001C13.3918 12.2097 13.7915 12.2603 14.0467 12.2603C14.1317 12.2603 14.1997 12.2544 14.2349 12.2514C14.4763 12.2298 14.7074 12.1411 14.9031 11.9947C15.0988 11.8485 15.2517 11.6502 15.3455 11.4215C15.3766 11.3405 15.3869 11.2527 15.3755 11.1666C15.3374 10.9467 15.1291 10.8797 14.9097 10.809C14.7832 10.7592 14.6494 10.7318 14.5139 10.7279C14.4969 10.7279 14.4782 10.7289 14.4603 10.7294L14.4606 10.7293ZM8.67923 10.809C8.45982 10.8797 8.25088 10.9467 8.21375 11.1666C8.20198 11.2528 8.21233 11.3407 8.24403 11.4215C8.33769 11.6498 8.49035 11.8478 8.6857 11.9939C8.88117 12.14 9.11171 12.2287 9.35273 12.2506C9.38766 12.2538 9.45493 12.2596 9.54109 12.2596C9.79543 12.2596 10.1961 12.209 10.2543 11.8995C10.307 11.6126 10.0359 11.2797 9.9336 11.1535C9.83735 11.0271 9.71535 10.9238 9.57615 10.8506C9.43695 10.7773 9.28377 10.736 9.12736 10.7294C9.10822 10.7294 9.09088 10.7281 9.07394 10.7281C8.93874 10.732 8.8051 10.7595 8.67884 10.809H8.67923ZM11.0406 11.8864L10.9578 11.9952L11.0762 11.9307C11.3067 11.8022 11.5666 11.7393 11.829 11.7485C12.0883 11.727 12.3475 11.7882 12.5715 11.9237L12.6903 11.9936L12.6085 11.8803C12.5158 11.7608 12.3954 11.6671 12.2581 11.6079C12.1209 11.5486 11.9712 11.5257 11.823 11.5412C11.8124 11.5412 11.8009 11.54 11.7888 11.54C11.6466 11.5364 11.5054 11.5657 11.3758 11.6257C11.2462 11.6857 11.1314 11.7747 11.0401 11.8864H11.0406ZM12.6725 10.2369C12.6433 10.2909 12.6253 10.3503 12.6198 10.4117C12.6144 10.4615 12.6187 10.5118 12.6324 10.5597C12.6462 10.6077 12.6693 10.6523 12.7 10.6911C12.8033 10.8115 12.9487 10.8856 13.1047 10.8971C13.1274 10.8995 13.1501 10.9004 13.1729 10.9C13.3228 10.8952 13.4711 10.8657 13.612 10.8126C13.7538 10.7613 13.8896 10.6944 14.0173 10.6132C14.079 10.5772 14.1368 10.5434 14.1947 10.5123C14.3837 10.4217 14.5835 10.3573 14.7891 10.3209L14.9894 10.2809L14.7847 10.2607C14.5619 10.2413 14.3377 10.272 14.1279 10.3509C14.0406 10.3867 13.9551 10.4274 13.8719 10.4724C13.7681 10.5278 13.6606 10.5755 13.5503 10.6148C13.3715 10.6973 13.1724 10.722 12.9795 10.6856C12.9356 10.6775 12.8936 10.6607 12.8561 10.636C12.8187 10.6113 12.7863 10.5791 12.7611 10.5415C12.7369 10.4989 12.7213 10.4518 12.7151 10.403C12.709 10.3542 12.7125 10.3045 12.7253 10.2571L12.7671 10.0581L12.6725 10.2369ZM8.80355 10.2612L8.59889 10.2815L8.8011 10.3203C9.00666 10.3568 9.20654 10.4212 9.39568 10.5115C9.45364 10.5429 9.5103 10.5764 9.57188 10.6126C9.69957 10.694 9.83567 10.7608 9.97758 10.8118C10.1181 10.8648 10.2661 10.8943 10.4158 10.8991C10.4385 10.8996 10.4613 10.8987 10.4839 10.8963C10.6402 10.8848 10.7856 10.8107 10.889 10.6902C10.92 10.6515 10.9429 10.6069 10.9567 10.5588C10.9704 10.5109 10.9744 10.4605 10.9686 10.4109C10.9634 10.3495 10.9457 10.2901 10.9167 10.2362L10.8222 10.0575L10.8642 10.2564C10.8772 10.3038 10.8808 10.3534 10.8748 10.4022C10.8688 10.4511 10.8532 10.4983 10.8288 10.5408C10.8034 10.5787 10.7708 10.611 10.733 10.636C10.6952 10.6609 10.653 10.678 10.6088 10.6861C10.4163 10.7225 10.2174 10.6977 10.0389 10.6154C9.92829 10.5766 9.82092 10.5289 9.71755 10.473C9.63424 10.4311 9.54976 10.3862 9.45997 10.3519C9.29179 10.289 9.1143 10.2567 8.93525 10.2563C8.89113 10.2556 8.84702 10.2572 8.80316 10.2612H8.80355ZM15.0171 7.83059C15.0171 7.838 15.0146 7.8445 15.0146 7.85165C15.0194 7.84158 15.0248 7.83178 15.0309 7.82238C15.0262 7.82516 15.0216 7.82767 15.0167 7.83006L15.0171 7.83059ZM10.2002 7.71602C10.2142 7.71827 10.2279 7.72185 10.2412 7.72661L10.2477 7.72317C10.252 7.71125 10.2564 7.70039 10.2614 7.68834C10.2407 7.69655 10.2203 7.70556 10.2002 7.71549V7.71602ZM11.2201 7.4731C11.2294 7.47867 11.2379 7.4841 11.2466 7.48993C11.2519 7.48953 11.2571 7.49019 11.2621 7.49191C11.2586 7.47867 11.2558 7.46529 11.2536 7.45178C11.2417 7.45907 11.2308 7.46714 11.2201 7.4731ZM7.64246 7.34317C7.65048 7.34397 7.65876 7.34397 7.66639 7.34556C7.66678 7.34185 7.66794 7.33827 7.66975 7.33509C7.66044 7.33708 7.65138 7.33986 7.64246 7.34317ZM13.7884 18.2281C13.8649 17.8683 13.8868 17.6725 13.957 17.255C14.3495 17.1817 14.7203 16.9395 15.0949 16.7869C16.2575 16.3213 17.2922 15.574 18.1106 14.609C17.4343 16.8309 15.7136 18.5456 13.5715 19.082C13.6605 18.8023 13.728 18.5122 13.7886 18.2279L13.7884 18.2281ZM5.45261 14.6086C6.27126 15.5736 7.30648 16.3211 8.46926 16.7866C8.84392 16.9392 9.21391 17.1815 9.60771 17.2547C9.67706 17.6723 9.69944 17.8679 9.77603 18.2278C9.83631 18.5121 9.90423 18.8025 9.99246 19.0816C7.84971 18.5453 6.1287 16.8306 5.45261 14.6086Z" fill="#9DFF12"/>
</svg>
