<svg width="25" height="24" viewBox="0 0 25 24" fill="none" xmlns="http://www.w3.org/2000/svg">
<path opacity="0.5" d="M3.5 10.417C3.5 7.219 3.5 5.62 3.878 5.082C4.255 4.545 5.758 4.03 8.765 3.001L9.338 2.805C10.905 2.268 11.688 2 12.5 2C13.311 2 14.095 2.268 15.662 2.805L16.235 3.001C19.242 4.03 20.745 4.545 21.122 5.082C21.5 5.62 21.5 7.22 21.5 10.417V11.991C21.5 17.629 17.261 20.366 14.601 21.527C13.88 21.842 13.52 22 12.5 22C11.48 22 11.12 21.842 10.399 21.527C7.739 20.365 3.5 17.63 3.5 11.991V10.417Z" stroke="#999999" stroke-width="1.5"/>
<path d="M16.5 11.5498L13.1 8.9998C12.9269 8.86998 12.7164 8.7998 12.5 8.7998C12.2836 8.7998 12.0731 8.86998 11.9 8.9998L8.5 11.5498M14.5 14.0498L12.5 12.5498L10.5 14.0498" stroke="#999999" stroke-width="1.5" stroke-linecap="round" stroke-linejoin="round"/>
</svg>
