<svg width="25" height="25" viewBox="0 0 25 25" fill="none" xmlns="http://www.w3.org/2000/svg">
<g clip-path="url(#clip0_8424_22834)">
<path d="M24.3761 18.5309L20.4141 22.6709C20.3274 22.761 20.2233 22.8324 20.1081 22.8809C19.9919 22.9299 19.8671 22.9551 19.7411 22.9549H0.96006C0.870826 22.9551 0.783405 22.9297 0.70806 22.8819C0.633418 22.8347 0.574305 22.7665 0.53806 22.6859C0.502473 22.6059 0.491675 22.5171 0.50706 22.4309C0.522429 22.3444 0.563149 22.2643 0.62406 22.2009L4.58906 18.0619C4.67544 17.972 4.77921 17.9005 4.89406 17.8519C5.00981 17.8027 5.13427 17.7772 5.26006 17.7769H24.0401C24.1294 17.7771 24.2168 17.8028 24.2921 17.8509C24.3666 17.8983 24.4257 17.9664 24.4621 18.0469C24.4976 18.1269 24.5084 18.2157 24.4931 18.3019C24.4777 18.3885 24.437 18.4675 24.3761 18.5309ZM20.4141 10.1969C20.3274 10.1069 20.2233 10.0354 20.1081 9.98692C19.992 9.93758 19.8672 9.91207 19.7411 9.91192H0.96006C0.870826 9.91179 0.783405 9.93711 0.70806 9.98492C0.633269 10.0325 0.574141 10.101 0.53806 10.1819C0.502674 10.2616 0.49188 10.3501 0.50706 10.4359C0.522429 10.5225 0.563149 10.6025 0.62406 10.6659L4.58906 14.8059C4.67544 14.8959 4.77921 14.9673 4.89406 15.0159C5.00988 15.0648 5.13434 15.09 5.26006 15.0899H24.0401C24.1293 15.0901 24.2167 15.0647 24.2921 15.0169C24.3666 14.9696 24.4257 14.9014 24.4621 14.8209C24.4976 14.7409 24.5084 14.6521 24.4931 14.5659C24.4777 14.4794 24.437 14.3993 24.3761 14.3359L20.4141 10.1969ZM0.96006 7.22292H19.7421C19.8682 7.22277 19.993 7.19726 20.1091 7.14792C20.2243 7.09944 20.3284 7.02798 20.4151 6.93792L24.3771 2.79792C24.438 2.73453 24.4787 2.65448 24.4941 2.56792C24.5089 2.48196 24.4978 2.39351 24.4621 2.31392C24.4257 2.23341 24.3666 2.16528 24.2921 2.11792C24.2167 2.07011 24.1293 2.04479 24.0401 2.04492H5.26006C5.13434 2.04489 5.00989 2.07005 4.89406 2.11892C4.77921 2.16753 4.67544 2.23897 4.58906 2.32892L0.62506 6.46992C0.564149 6.53331 0.523429 6.61336 0.50806 6.69992C0.492566 6.78569 0.503012 6.87413 0.53806 6.95392C0.574305 7.0345 0.633418 7.10265 0.70806 7.14992C0.783298 7.19809 0.870726 7.22276 0.96006 7.22292Z" fill="url(#paint0_linear_8424_22834)"/>
</g>
<defs>
<linearGradient id="paint0_linear_8424_22834" x1="25.0001" y1="2" x2="1.00006" y2="23" gradientUnits="userSpaceOnUse">
<stop stop-color="#05CD8F"/>
<stop offset="1" stop-color="#9C53FD"/>
</linearGradient>
<clipPath id="clip0_8424_22834">
<rect width="24" height="24" fill="white" transform="translate(0.5 0.5)"/>
</clipPath>
</defs>
</svg>
