<svg width="25" height="24" viewBox="0 0 25 24" fill="none" xmlns="http://www.w3.org/2000/svg">
<path opacity="0.5" d="M5.22799 16.1368C3.68299 14.5908 2.90999 13.8188 2.62299 12.8158C2.33499 11.8128 2.58099 10.7478 3.07299 8.61876L3.35599 7.39076C3.76899 5.59876 3.97599 4.70276 4.58899 4.08876C5.20299 3.47576 6.09899 3.26876 7.89099 2.85576L9.11899 2.57176C11.249 2.08076 12.313 1.83476 13.316 2.12176C14.319 2.40976 15.091 3.18276 16.636 4.72776L18.466 6.55776C21.157 9.24776 22.5 10.5918 22.5 12.2618C22.5 13.9328 21.155 15.2768 18.466 17.9658C15.777 20.6568 14.433 21.9998 12.762 21.9998C11.092 21.9998 9.74699 20.6548 7.05799 17.9658L5.22799 16.1368Z" stroke="#999999" stroke-width="1.5"/>
<path d="M15.89 15.39C16.475 14.803 16.554 13.933 16.066 13.444C15.578 12.956 14.707 13.035 14.121 13.621C13.536 14.207 12.665 14.286 12.177 13.798C11.689 13.31 11.768 12.439 12.354 11.854M12.354 11.854L12 11.5M12.354 11.854C12.685 11.522 13.107 11.354 13.5 11.357M16.243 15.743L15.889 15.389C15.489 15.79 14.954 15.954 14.5 15.86" stroke="#999999" stroke-width="1.5" stroke-linecap="round"/>
<path d="M10.5212 10.2931C11.3023 9.51207 11.3023 8.24574 10.5212 7.46469C9.74016 6.68364 8.47383 6.68364 7.69278 7.46469C6.91173 8.24574 6.91173 9.51207 7.69278 10.2931C8.47383 11.0742 9.74016 11.0742 10.5212 10.2931Z" stroke="#999999" stroke-width="1.5"/>
</svg>
